<svg width="32" height="32" viewBox="0 0 32 32" fill="none" xmlns="http://www.w3.org/2000/svg">
<path d="M12.685 28.205c.556 0 .53-1.12.53-1.493 0-.334-.012-1.217-.019-2.39-3.894.85-4.716-1.885-4.716-1.885-.636-1.623-1.554-2.055-1.554-2.055-1.271-.873.096-.855.096-.855 1.405.1 2.144 1.449 2.144 1.449 1.25 2.148 3.277 1.527 4.075 1.167.127-.908.489-1.528.889-1.879-3.109-.355-6.377-1.56-6.377-6.946 0-1.535.545-2.79 1.441-3.772-.144-.356-.625-1.784.137-3.72 0 0 1.176-.377 3.85 1.441a13.39 13.39 0 013.505-.473c1.189.006 2.387.161 3.505.473 2.672-1.818 3.846-1.44 3.846-1.44.764 1.935.283 3.363.139 3.719.898.983 1.44 2.237 1.44 3.772 0 5.4-3.274 6.588-6.393 6.936.503.434.95 1.29.95 2.602 0 1.88-.017 3.395-.017 3.856 0 .376 0 1.495.529 1.493 0 .002-8 0-8 0z" fill="#fff"></path>
</svg>