<svg xmlns="http://www.w3.org/2000/svg"  viewBox="0 0 48 48" width="100px" height="100px"><path fill="#f8e169" d="M40,25c0-8.822-7.178-16-16-16S8,16.178,8,25c0,1.569-1.209,2.843-2.745,2.974 C6.686,37.051,14.521,44,24,44s17.314-6.949,18.745-16.026C41.209,27.843,40,26.569,40,25z"/><path fill="#fae56b" d="M24,3C11.869,3,2,12.869,2,25c0,1.657,1.343,3,3,3c0.088,0,0.17-0.018,0.255-0.026 C5.102,27.003,5,26.014,5,25C5,14.507,13.507,6,24,6s19,8.507,19,19c0,1.014-0.102,2.003-0.255,2.974C42.83,27.982,42.912,28,43,28 c1.657,0,3-1.343,3-3C46,12.869,36.131,3,24,3z"/><path fill="#f5bc00" d="M24,6C13.507,6,5,14.507,5,25c0,1.014,0.102,2.003,0.255,2.974C6.791,27.843,8,26.569,8,25 c0-8.822,7.178-16,16-16s16,7.178,16,16c0,1.569,1.209,2.843,2.745,2.974C42.898,27.003,43,26.014,43,25C43,14.507,34.493,6,24,6z"/><circle cx="16.5" cy="22.5" r="5.5" fill="#2100c4"/><circle cx="18" cy="22" r="4" fill="#c2ffff"/><circle cx="31.5" cy="22.5" r="5.5" fill="#2100c4"/><rect width="6" height="1" x="21" y="28" fill="none"/><circle cx="33" cy="22" r="4" fill="#c2ffff"/><path fill="#f5bc00" d="M24,22L24,22c-4.418,0-8,3.582-8,8v2.357c0,1.308,0.941,2.499,2.242,2.63 C19.739,35.137,21,33.966,21,32.5V29h6l0,3.357c0,1.308,0.941,2.499,2.242,2.63C30.739,35.137,32,33.966,32,32.5V30 C32,25.582,28.418,22,24,22z"/><path fill="#eb7900" d="M21,28.5v4.477C21.838,33.61,22.869,34,24,34s2.162-0.39,3-1.023V28.5H21z"/><ellipse cx="24" cy="28.5" fill="#2100c4" rx="3" ry="2.5"/></svg>